<?xml version="1.0" encoding="UTF-8" standalone="no"?>
<svg xmlns="http://www.w3.org/2000/svg" viewBox="0 0 24 24" width="24" height="24">
  <rect width="24" height="24" fill="#ffffff"/>
  <path d="M4 6h16v12H4V6zm8 10c2.2 0 4-1.8 4-4s-1.8-4-4-4-4 1.8-4 4 1.8 4 4 4z" fill="#1a1a1a"/>
  <path d="M12 16c2.2 0 4-1.8 4-4s-1.8-4-4-4-4 1.8-4 4 1.8 4 4 4zm0-7c1.7 0 3 1.3 3 3s-1.3 3-3 3-3-1.3-3-3 1.3-3 3-3z" fill="#ffffff"/>
  <text x="12" y="13" font-family="Arial, sans-serif" font-size="5" font-weight="bold" text-anchor="middle" fill="#1a1a1a">AP</text>
</svg> 